<?xml version="1.0" encoding="UTF-8"?>
<svg width="228px" height="327px" viewBox="0 0 228 327" version="1.1" xmlns="http://www.w3.org/2000/svg" xmlns:xlink="http://www.w3.org/1999/xlink">
    <!-- Generator: Sketch 55.2 (78181) - https://sketchapp.com -->
    <title>cold</title>
    <desc>Created with Sketch.</desc>
    <g id="Page-1" stroke="none" stroke-width="1" fill="none" fill-rule="evenodd">
        <g id="Artboard" transform="translate(-158.000000, -16.000000)" fill="#000000" fill-rule="nonzero">
            <g id="cold" transform="translate(158.000000, 16.000000)">
                <path d="M220.593,93.906 L220.193,93.506 C216.731,90.192 212.331,88.026 207.593,87.306 C204.049,35.667 159.314,-3.321 107.675,0.224 C60.973,3.43 23.798,40.604 20.593,87.306 C9.139,88.971 0.631,98.772 0.593,110.346 C0.628,122.261 9.625,132.241 21.473,133.506 L21.473,133.546 L57.953,305.866 C58.943,311.02 61.322,315.806 64.833,319.706 L65.233,320.146 C68.926,323.947 74.014,326.071 79.313,326.026701 L148.433,326.026701 C153.732,326.071 158.82,323.947 162.513,320.146 C166.315,316.201 168.898,311.243 169.953,305.866 L206.553,133.506 C211.866,132.946 216.825,130.573 220.593,126.786 C224.965,122.431 227.426,116.517 227.433,110.346 C227.426,104.175 224.965,98.26 220.593,93.906 Z M127.353,14.506 C143.801,17.266 158.975,25.098 170.753,36.906 C172.006,38.159 173.22,39.493 174.393,40.906 C161.65,50.825 143.278,48.535 133.359,35.792 C129.37,30.667 127.201,24.36 127.193,17.866 C127.184,16.744 127.237,15.622 127.353,14.506 Z M57.153,36.946 C72.198,21.854 92.643,13.388 113.953,13.4258726 C111.513,36.804 128.488,57.734 151.866,60.173 C162.733,61.307 173.621,58.218 182.273,51.546 C188.911,62.285 192.914,74.443 193.953,87.026 L33.953,87.026 C35.501,68.109 43.724,50.359 57.153,36.946 Z M156.753,303.026 C156.263,305.854 154.987,308.487 153.073,310.626 C151.857,311.882 150.182,312.59 148.433,312.586067 L79.473,312.586067 C77.723,312.594 76.047,311.886 74.833,310.626 L74.553,310.346 C72.797,308.247 71.625,305.722 71.153,303.026 L35.153,133.586 L192.713,133.586 L156.753,303.026 Z M211.033,117.346 C209.179,119.208 206.661,120.258 204.033,120.266 L24.033,120.266 C18.533,120.332 14.02,115.927 13.953,110.427 C13.953,110.4 13.953,110.373 13.953,110.346 C13.975,104.876 18.403,100.448 23.873,100.426 L203.873,100.426 C206.415,100.379 208.878,101.31 210.753,103.026 L210.993,103.306 C212.883,105.161 213.95,107.697 213.953,110.346 C213.95,112.975 212.899,115.494 211.033,117.346 Z" id="Shape"></path>
            </g>
        </g>
    </g>
</svg>